<mxfile host="app.diagrams.net" modified="2023-10-30T08:17:00.798Z" agent="Mozilla/5.0 (Windows NT 10.0; Win64; x64) AppleWebKit/537.36 (KHTML, like Gecko) Chrome/93.0.4577.63 Safari/537.36 Edg/93.0.961.47" version="22.0.8" etag="U_-hY1QIv1IbyEVYaZyC" type="github">
  <diagram name="第 1 页" id="bX_I-nY_9bmCcCqY-lso">
    <mxGraphModel>
      <root>
        <mxCell id="0" />
        <mxCell id="1" parent="0" />
      </root>
    </mxGraphModel>
  </diagram>
</mxfile>
